<svg width="48" height="48" viewBox="0 0 48 48" fill="none" xmlns="http://www.w3.org/2000/svg">
<path d="M15.2261 13.4906C14.5636 13.5087 14.0119 12.9863 13.9938 12.3238C13.9757 11.6613 14.4981 11.1096 15.1606 11.0915L15.2261 13.4906ZM21.452 12.12L21.4192 10.9205C21.7333 10.9119 22.0383 11.0269 22.2685 11.2407L21.452 12.12ZM24.8167 13.6068C25.3023 14.0577 25.3305 14.817 24.8795 15.3027C24.4285 15.7883 23.6693 15.8164 23.1836 15.3655L24.8167 13.6068ZM15.1606 11.0915L21.4192 10.9205L21.4848 13.3196L15.2261 13.4906L15.1606 11.0915ZM22.2685 11.2407C23.2037 12.1091 24.0359 12.8818 24.8167 13.6068L23.1836 15.3655C22.4028 14.6405 21.5707 13.8678 20.6355 12.9994L22.2685 11.2407Z" fill="#C1D3DE"/>
<path d="M31.2785 9.0724L36.8001 6.44401L45.1931 23.7688L39.3927 26.4735L31.2785 9.0724Z" stroke="#376FFF" stroke-width="2.4" stroke-linejoin="round"/>
<path d="M26.6805 20.2901C26.1614 19.8781 25.4066 19.965 24.9946 20.4841C24.5826 21.0033 24.6695 21.7581 25.1886 22.17L26.6805 20.2901ZM33.596 28.842C34.1152 29.254 34.87 29.1671 35.282 28.648C35.6939 28.1289 35.6071 27.3741 35.0879 26.9621L33.596 28.842ZM25.1886 22.17L33.596 28.842L35.0879 26.9621L26.6805 20.2901L25.1886 22.17Z" fill="#C1D3DE"/>
<path d="M32.7674 13.4906C33.4299 13.5087 33.9817 12.9863 33.9998 12.3238C34.0179 11.6613 33.4955 11.1096 32.833 11.0915L32.7674 13.4906ZM26.5416 12.1201L26.5743 10.9205C26.2602 10.9119 25.9553 11.0269 25.725 11.2407L26.5416 12.1201ZM16.9938 20.9858L16.1773 20.1064C15.9209 20.3445 15.7812 20.6826 15.7947 21.0323C15.8083 21.3819 15.9738 21.7082 16.2479 21.9257L16.9938 20.9858ZM20.4969 23.7658L19.751 24.7057C20.107 24.9883 20.5921 25.0454 21.004 24.8533L20.4969 23.7658ZM26.4419 22.3176C27.0425 22.0375 27.3024 21.3236 27.0223 20.7229C26.7422 20.1223 26.0283 19.8624 25.4276 20.1425L26.4419 22.3176ZM33.6035 26.9564C33.0812 27.3643 32.9885 28.1185 33.3965 28.6407C33.8045 29.163 34.5586 29.2557 35.0809 28.8477L33.6035 26.9564ZM39.2865 25.5625C39.8088 25.1546 39.9015 24.4004 39.4935 23.8781C39.0855 23.3559 38.3314 23.2632 37.8091 23.6712L39.2865 25.5625ZM32.833 11.0915L26.5743 10.9205L26.5088 13.3196L32.7674 13.4906L32.833 11.0915ZM25.725 11.2407L16.1773 20.1064L17.8104 21.8651L27.3581 12.9994L25.725 11.2407ZM16.2479 21.9257L19.751 24.7057L21.2429 22.8258L17.7398 20.0458L16.2479 21.9257ZM21.004 24.8533L26.4419 22.3176L25.4276 20.1425L19.9898 22.6782L21.004 24.8533ZM35.0809 28.8477L39.2865 25.5625L37.8091 23.6712L33.6035 26.9564L35.0809 28.8477Z" fill="#376FFF"/>
<path d="M39.2863 25.5626C39.8086 25.1546 39.9013 24.4005 39.4933 23.8782C39.0853 23.3559 38.3312 23.2632 37.8089 23.6712L39.2863 25.5626ZM10.325 24.2436C9.79678 23.8433 9.04409 23.947 8.64381 24.4752C8.24354 25.0035 8.34725 25.7561 8.87545 26.1564L10.325 24.2436ZM29.5039 33.204L39.2863 25.5626L37.8089 23.6712L28.0265 31.3126L29.5039 33.204ZM19.7335 31.3734L10.325 24.2436L8.87545 26.1564L18.284 33.2862L19.7335 31.3734ZM28.0265 31.3126C25.5959 33.2113 22.1917 33.2362 19.7335 31.3734L18.284 33.2862C21.6098 35.8065 26.2154 35.7727 29.5039 33.204L28.0265 31.3126Z" fill="#376FFF"/>
<path d="M16.7148 9.07234L11.1932 6.44395L2.80019 23.7687L8.60056 26.4734L16.7148 9.07234Z" stroke="#C1D3DE" stroke-width="2.4" stroke-linejoin="round"/>
<path d="M4.80005 44.8H43.2001" stroke="#C1D3DE" stroke-width="2.4" stroke-linecap="round"/>
</svg>
