<svg width="49" height="49" viewBox="0 0 49 49" fill="none" xmlns="http://www.w3.org/2000/svg">
<path d="M8.80005 6.4C8.80005 4.63269 10.2327 3.2 12 3.2H26.4C28.1674 3.2 29.6 4.63269 29.6 6.4V11.2H8.80005V6.4Z" stroke="#376FFF" stroke-width="2.4"/>
<path fill-rule="evenodd" clip-rule="evenodd" d="M6.4 10C3.96995 10 2 11.9699 2 14.4V32C2 34.4301 3.96995 36.4 6.4 36.4H20.5132C20.2873 35.6277 20.1322 34.8252 20.0555 34H6.4C5.29543 34 4.4 33.1046 4.4 32V21.2H13.2V23.2C13.2 24.7464 14.4536 26 16 26H21.9537C22.8082 24.6397 23.9116 23.4516 25.2 22.4995V21.2H27.3817C29.0271 20.4301 30.8633 20 32.8 20C34.0499 20 35.258 20.1792 36.4 20.5132V14.4C36.4 11.9699 34.4301 10 32 10H6.4ZM4.4 14.4C4.4 13.2954 5.29543 12.4 6.4 12.4H32C33.1046 12.4 34 13.2954 34 14.4V18.8H25.2H24H14.4H13.2H4.4V14.4ZM15.6 21.2H22.8V23.2C22.8 23.4209 22.6209 23.6 22.4 23.6H16C15.7791 23.6 15.6 23.4209 15.6 23.2V21.2Z" fill="#C1D3DE"/>
<path fill-rule="evenodd" clip-rule="evenodd" d="M40.3999 22.4995C39.6572 21.9506 38.8532 21.4802 37.9999 21.1004V36C37.9999 37.1046 37.1044 38 35.9999 38H21.1002C21.48 38.8533 21.9505 39.6574 22.4993 40.4L35.9999 40.4C38.4299 40.4 40.3999 38.4301 40.3999 36V22.4995Z" fill="#C1D3DE"/>
<path fill-rule="evenodd" clip-rule="evenodd" d="M32.8002 21.2C26.3937 21.2 21.2002 26.3935 21.2002 32.8C21.2002 39.2065 26.3937 44.4 32.8002 44.4C39.2067 44.4 44.4002 39.2065 44.4002 32.8C44.4002 26.3935 39.2067 21.2 32.8002 21.2ZM18.8002 32.8C18.8002 25.068 25.0682 18.8 32.8002 18.8C40.5322 18.8 46.8002 25.068 46.8002 32.8C46.8002 36.234 45.5638 39.3792 43.512 41.8147L48.0487 46.3515C48.5173 46.8201 48.5173 47.5799 48.0487 48.0485C47.5801 48.5171 46.8203 48.5171 46.3516 48.0485L41.8149 43.5118C39.3793 45.5636 36.2341 46.8 32.8002 46.8C25.0682 46.8 18.8002 40.532 18.8002 32.8ZM31.6002 24.8C31.6002 24.1372 32.1374 23.6 32.8002 23.6C37.8812 23.6 42.0002 27.719 42.0002 32.8C42.0002 33.4627 41.4629 34 40.8002 34C40.1374 34 39.6002 33.4627 39.6002 32.8C39.6002 29.0445 36.5557 26 32.8002 26C32.1374 26 31.6002 25.4627 31.6002 24.8Z" fill="#376FFF"/>
</svg>
