<svg width="49" height="49" viewBox="0 0 49 49" fill="none" xmlns="http://www.w3.org/2000/svg">
<path fill-rule="evenodd" clip-rule="evenodd" d="M23.2 2C21.6536 2 20.4 3.25361 20.4 4.8V14.4C20.4 15.9464 21.6536 17.2 23.2 17.2H32.8C34.3464 17.2 35.6 15.9464 35.6 14.4V4.8C35.6 3.2536 34.3464 2 32.8 2H23.2ZM22.8 4.8C22.8 4.57909 22.9791 4.4 23.2 4.4H32.8C33.0209 4.4 33.2 4.57909 33.2 4.8V14.4C33.2 14.6209 33.0209 14.8 32.8 14.8H23.2C22.9791 14.8 22.8 14.6209 22.8 14.4V4.8ZM4.8 20.4C3.2536 20.4 2 21.6536 2 23.2V32.8C2 34.3464 3.25361 35.6 4.8 35.6H14.4C15.9464 35.6 17.2 34.3464 17.2 32.8V23.2C17.2 21.6536 15.9464 20.4 14.4 20.4H4.8ZM4.4 23.2C4.4 22.9791 4.57909 22.8 4.8 22.8H14.4C14.6209 22.8 14.8 22.9791 14.8 23.2V32.8C14.8 33.0209 14.6209 33.2 14.4 33.2H4.8C4.57909 33.2 4.4 33.0209 4.4 32.8V23.2ZM20.4 23.2C20.4 21.6536 21.6536 20.4 23.2 20.4H29.6127C27.8326 20.8562 26.202 21.6857 24.8092 22.8H23.2C22.9791 22.8 22.8 22.9791 22.8 23.2V24.8092C21.6857 26.202 20.8562 27.8326 20.4 29.6127V23.2Z" fill="#C1D3DE"/>
<path d="M3.19995 4.8C3.19995 3.91634 3.9163 3.2 4.79995 3.2H14.3999C15.2836 3.2 16 3.91634 16 4.8V14.4C16 15.2837 15.2836 16 14.4 16H4.79995C3.9163 16 3.19995 15.2837 3.19995 14.4V4.8Z" stroke="#376FFF" stroke-width="2.4"/>
<path fill-rule="evenodd" clip-rule="evenodd" d="M40.3369 22.4531C38.2226 20.9104 35.6176 20 32.8 20C30.8633 20 29.0271 20.4301 27.3817 21.2H36C37.1046 21.2 38 22.0954 38 23.2V36C38 37.1046 37.1046 38 36 38H23.2C22.0954 38 21.2 37.1046 21.2 36V27.3817C20.4301 29.0271 20 30.8633 20 32.8C20 35.6176 20.9104 38.2226 22.4531 40.3369C22.6959 40.3784 22.9454 40.4 23.2 40.4H36C38.4301 40.4 40.4 38.4301 40.4 36V23.2C40.4 22.9454 40.3784 22.6959 40.3369 22.4531Z" fill="#C1D3DE"/>
<path fill-rule="evenodd" clip-rule="evenodd" d="M32.8002 21.2C26.3937 21.2 21.2002 26.3935 21.2002 32.8C21.2002 39.2065 26.3937 44.4 32.8002 44.4C39.2067 44.4 44.4002 39.2065 44.4002 32.8C44.4002 26.3935 39.2067 21.2 32.8002 21.2ZM18.8002 32.8C18.8002 25.068 25.0682 18.8 32.8002 18.8C40.5322 18.8 46.8002 25.068 46.8002 32.8C46.8002 36.234 45.5638 39.3792 43.512 41.8147L48.0487 46.3515C48.5173 46.8201 48.5173 47.5799 48.0487 48.0485C47.5801 48.5171 46.8203 48.5171 46.3516 48.0485L41.8149 43.5118C39.3793 45.5636 36.2341 46.8 32.8002 46.8C25.0682 46.8 18.8002 40.532 18.8002 32.8ZM31.6002 24.8C31.6002 24.1372 32.1374 23.6 32.8002 23.6C37.8812 23.6 42.0002 27.719 42.0002 32.8C42.0002 33.4627 41.4629 34 40.8002 34C40.1374 34 39.6002 33.4627 39.6002 32.8C39.6002 29.0445 36.5557 26 32.8002 26C32.1374 26 31.6002 25.4627 31.6002 24.8Z" fill="#376FFF"/>
</svg>
