<svg width="48" height="48" viewBox="0 0 48 48" fill="none" xmlns="http://www.w3.org/2000/svg">
<path d="M23.9999 4V5.6M15.5999 6.25078L16.3999 7.63642M9.45068 12.4L10.8363 13.2M7.19995 20.8H8.79995M9.45068 29.2L10.8363 28.4M32.4 6.25078L31.6 7.63642M38.5491 12.4L37.1635 13.2M40.7999 20.8H39.1999M38.5491 29.2L37.1635 28.4" stroke="#C1D3DE" stroke-width="2.4" stroke-linecap="round" stroke-linejoin="round"/>
<path fill-rule="evenodd" clip-rule="evenodd" d="M19.9514 19.1515C20.42 18.6828 21.1798 18.6828 21.6485 19.1515L23.9999 21.5029L26.3514 19.1515C26.82 18.6828 27.5798 18.6828 28.0485 19.1515C28.5171 19.6201 28.5171 20.3799 28.0485 20.8485L25.1999 23.697V28C25.1999 28.6627 24.6627 29.2 23.9999 29.2C23.3372 29.2 22.7999 28.6627 22.7999 28V23.697L19.9514 20.8485C19.4828 20.3799 19.4828 19.6201 19.9514 19.1515ZM27.9999 38.7999C28.6627 38.7999 29.1999 38.2627 29.1999 37.5999C29.1999 36.9372 28.6627 36.3999 27.9999 36.3999H19.9999C19.3372 36.3999 18.7999 36.9372 18.7999 37.5999C18.7999 38.2627 19.3372 38.7999 19.9999 38.7999H27.9999Z" fill="#C1D3DE"/>
<path d="M31.4325 12.3853C27.2255 8.69243 20.6037 8.54504 16.2307 12.7046C14.4632 14.3832 13.2932 16.5859 12.9364 18.9113C12.48 21.8181 13.1771 24.7085 14.8781 27.0667C19.5499 33.5027 18.9524 38.6203 19.0188 38.997C19.0188 40.3398 19.5333 41.6008 20.471 42.5424C21.4086 43.4841 22.6616 43.9999 23.9976 43.9999C26.7442 43.9999 28.9763 41.7973 28.9763 39.087C29.0344 38.7349 28.4702 33.126 32.9345 27.3206C34.4198 25.3882 35.1998 23.0873 35.1998 20.6636C35.1998 17.5029 33.8306 14.4897 31.4325 12.3853Z" stroke="#376FFF" stroke-width="2.4"/>
</svg>
