<svg viewBox="0 0 436.64 263" style="enable-background:new 0 0 436.64 436.64" xmlns="http://www.w3.org/2000/svg"><path d="M76.906 186.94c-13.806 0-25.039 11.232-25.039 25.039s11.232 25.039 25.039 25.039c13.807 0 25.04-11.232 25.04-25.039s-11.234-25.039-25.04-25.039zm0 35.078c-5.535 0-10.039-4.503-10.039-10.039s4.503-10.039 10.039-10.039 10.04 4.503 10.04 10.039-4.505 10.039-10.04 10.039zm260.453-35.078c-13.807 0-25.04 11.232-25.04 25.039s11.233 25.039 25.04 25.039c13.806 0 25.039-11.232 25.039-25.039s-11.232-25.039-25.039-25.039zm0 35.078c-5.536 0-10.04-4.503-10.04-10.039s4.504-10.039 10.04-10.039c5.535 0 10.039 4.503 10.039 10.039s-4.503 10.039-10.039 10.039z"/><path d="M399.72 0H36.93C16.567 0 0 16.562 0 36.92v177.84a7.5 7.5 0 0 0 7.5 7.5h20.212c4.758 22.796 25.007 39.974 49.195 39.974s44.436-17.178 49.194-39.974h162.064c4.758 22.796 25.006 39.974 49.194 39.974s44.436-17.178 49.194-39.974h42.587a7.5 7.5 0 0 0 7.5-7.5V36.92C436.64 16.562 420.078 0 399.72 0zm21.92 132.77H381.1c-4.665 0-8.46-3.795-8.46-8.46V52.88c0-4.665 3.795-8.46 8.46-8.46h40.54v88.35zM15 199.37h13.254a50.06 50.06 0 0 0-1.375 7.89H15v-7.89zm61.906 47.864c-19.44 0-35.256-15.815-35.256-35.255s15.816-35.255 35.256-35.255 35.255 15.815 35.255 35.255-15.815 35.255-35.255 35.255zm260.453 0c-19.44 0-35.255-15.815-35.255-35.255s15.815-35.255 35.255-35.255 35.255 15.815 35.255 35.255-15.815 35.255-35.255 35.255zm0-85.51c-17.519 0-32.964 9.016-41.962 22.646H154.64a7.5 7.5 0 0 0 0 15h134.067a50.06 50.06 0 0 0-1.375 7.89H126.933c-2.387-25.506-23.908-45.537-50.027-45.537-17.519 0-32.965 9.016-41.963 22.646H15V36.919c0-12.087 9.838-21.92 21.93-21.92h362.79c9.453 0 17.528 6.016 20.598 14.42H381.1c-12.936 0-23.46 10.524-23.46 23.46v71.43c0 12.936 10.524 23.46 23.46 23.46h40.54v9h-12.5a7.5 7.5 0 0 0 0 15h12.5v12.6h-42.319c-8.998-13.629-24.443-22.645-41.962-22.645zm50.027 45.536a49.945 49.945 0 0 0-1.375-7.89h35.629v7.89h-34.254z"/><path d="M325.18 29.42H55.51c-12.936 0-23.46 10.524-23.46 23.46v71.43c0 12.936 10.524 23.46 23.46 23.46h269.67c12.936 0 23.46-10.524 23.46-23.46V52.88c0-12.936-10.524-23.46-23.46-23.46zm-89.54 15v88.35h-87V44.42h87zM47.05 124.31V52.88c0-4.665 3.795-8.46 8.46-8.46h78.13v88.35H55.51c-4.665 0-8.46-3.795-8.46-8.46zm286.59 0c0 4.665-3.795 8.46-8.46 8.46h-74.54V44.42h74.54c4.665 0 8.46 3.795 8.46 8.46v71.43zm-193.737 61.326c-2.812-1.854-6.617-1.619-9.146.627-2.28 2.024-3.098 5.329-2.051 8.187 1.117 3.049 4.156 5.066 7.404 4.907 3.146-.154 5.915-2.335 6.817-5.347.929-3.102-.313-6.589-3.024-8.374-.41-.27.41.27 0 0z"/></svg>