<svg width="32" height="32" fill="none" xmlns="http://www.w3.org/2000/svg"><path d="M28.89 22a30.072 30.072 0 0 0-4.13-5.15.2.2 0 0 1 0-.25 40.658 40.658 0 0 0 3.55-5.81 1.9 1.9 0 0 0-.08-1.86A1.81 1.81 0 0 0 26.65 8h-3a2 2 0 0 0-1.79 1.19 35.002 35.002 0 0 1-3.12 5.51V9.8a1.79 1.79 0 0 0-1.8-1.8h-4.38a1.4 1.4 0 0 0-1.12 2.21l.4.56c.214.308.33.675.33 1.05v3.84a26.11 26.11 0 0 1-3.12-6.31A2 2 0 0 0 7.16 8H4.71a1.73 1.73 0 0 0-1.66 2.14c1.35 5.73 4.18 10.48 7.77 13a1 1 0 0 0 1.16-1.63C8.84 19.31 6.34 15.12 5.07 10h2.1a26.12 26.12 0 0 0 4.1 7.75 1.6 1.6 0 0 0 1.8.52 1.64 1.64 0 0 0 1.1-1.57v-4.88a3.78 3.78 0 0 0-.46-1.82h3v5.43A1.77 1.77 0 0 0 18 17.15a1.74 1.74 0 0 0 2-.69A36.868 36.868 0 0 0 23.62 10h2.8a39.798 39.798 0 0 1-3.29 5.37 2.17 2.17 0 0 0 .2 2.83 32.077 32.077 0 0 1 3.92 4.8H23.9a14 14 0 0 0-4.07-4.31 1.64 1.64 0 0 0-1.73-.13 1.691 1.691 0 0 0-.92 1.52v2.38a.53.53 0 0 1-.5.55h-.86a1 1 0 0 0 0 2h.86a2.52 2.52 0 0 0 2.5-2.55v-1.77a11.78 11.78 0 0 1 3 3.32 2 2 0 0 0 1.69 1h3.38a1.92 1.92 0 0 0 1.69-1 2 2 0 0 0-.05-2.01Z" fill="#fff"/></svg>