<svg width="60" height="60" viewBox="0 0 60 60" fill="none" xmlns="http://www.w3.org/2000/svg">
<g clip-path="url(#clip0_390_2198)">
<path d="M29.9396 47.5L29.9395 49L29.9395 47.5H29.939H29.9369L29.9282 47.5L29.893 47.5L29.7536 47.4997C29.6308 47.4994 29.4497 47.4988 29.2174 47.4976C28.7529 47.4952 28.0837 47.4905 27.2673 47.4809C25.6337 47.4619 23.4135 47.4237 21.0637 47.3475C18.7113 47.2712 16.2421 47.1571 14.1065 46.9873C11.9518 46.816 10.2677 46.5965 9.36853 46.3419C8.47144 46.0336 7.61216 45.5354 6.96791 44.8813C6.29444 44.1976 5.82529 43.4386 5.53519 42.4746C3.81325 35.4377 4.36754 24.1188 5.55321 16.4665C5.84457 15.5304 6.30821 14.7884 6.96791 14.1187C7.73112 13.3439 8.44005 12.8544 9.21789 12.6964L9.27818 12.6842L9.33728 12.667C10.2277 12.4088 11.9329 12.1861 14.1247 12.0127C16.2718 11.8429 18.7562 11.7288 21.1238 11.6525C23.4887 11.5763 25.7241 11.5381 27.3691 11.5191C28.1912 11.5095 28.8651 11.5048 29.333 11.5024C29.5669 11.5012 29.7493 11.5006 29.873 11.5003L30.0135 11.5L30.0489 11.5L30.0577 11.5L30.0598 11.5H30.0603L30.0604 10L30.0604 11.5H30.0609L30.063 11.5L30.0717 11.5L30.1069 11.5L30.2463 11.5003C30.3691 11.5006 30.5502 11.5012 30.7825 11.5024C31.247 11.5048 31.9162 11.5095 32.7326 11.5191C34.3662 11.5381 36.5864 11.5763 38.9362 11.6525C41.2886 11.7288 43.7578 11.8429 45.8934 12.0127C48.0733 12.186 49.7716 12.4086 50.6626 12.667L50.7062 12.6797L50.7504 12.6896C51.4164 12.8399 52.1339 13.3296 52.9112 14.1187C53.5847 14.8024 54.0538 15.5615 54.3439 16.5254C56.0672 23.5664 55.6283 34.8827 54.333 42.5004C54.0254 43.3936 53.5402 44.2427 52.9112 44.8813C52.2656 45.5367 51.4042 46.0356 50.5051 46.3438C49.6437 46.5956 47.9795 46.8154 45.8233 46.9874C43.6937 47.1571 41.2209 47.2712 38.8609 47.3475C36.5035 47.4237 34.272 47.4619 32.6289 47.4809C31.8077 47.4905 31.1343 47.4952 30.6667 47.4976C30.4328 47.4988 30.2505 47.4994 30.1269 47.4997L29.9864 47.5L29.951 47.5L29.9422 47.5H29.9401H29.9396Z" stroke="#8B9BAB" stroke-width="3"/>
<path d="M24.6241 37.8394L38.6376 29.4998L24.6241 21.1602V37.8394Z" fill="#376FFF"/>
</g>
<path d="M6 54L2 58" stroke="#8B9BAB" stroke-width="3" stroke-linecap="round" stroke-linejoin="round"/>
<path d="M58 54L54 58" stroke="#8B9BAB" stroke-width="3" stroke-linecap="round" stroke-linejoin="round"/>
<path d="M14 54L10 58" stroke="#8B9BAB" stroke-width="3" stroke-linecap="round" stroke-linejoin="round"/>
<path d="M23 54L19 58" stroke="#8B9BAB" stroke-width="3" stroke-linecap="round" stroke-linejoin="round"/>
<path d="M31 54L27 58" stroke="#8B9BAB" stroke-width="3" stroke-linecap="round" stroke-linejoin="round"/>
<path d="M40 54L36 58" stroke="#8B9BAB" stroke-width="3" stroke-linecap="round" stroke-linejoin="round"/>
<path d="M49 54L45 58" stroke="#8B9BAB" stroke-width="3" stroke-linecap="round" stroke-linejoin="round"/>
<path d="M6 2L2 6" stroke="#8B9BAB" stroke-width="3" stroke-linecap="round" stroke-linejoin="round"/>
<path d="M58 2L54 6" stroke="#8B9BAB" stroke-width="3" stroke-linecap="round" stroke-linejoin="round"/>
<path d="M14 2L10 6" stroke="#8B9BAB" stroke-width="3" stroke-linecap="round" stroke-linejoin="round"/>
<path d="M23 2L19 6" stroke="#8B9BAB" stroke-width="3" stroke-linecap="round" stroke-linejoin="round"/>
<path d="M31 2L27 6" stroke="#8B9BAB" stroke-width="3" stroke-linecap="round" stroke-linejoin="round"/>
<path d="M40 2L36 6" stroke="#8B9BAB" stroke-width="3" stroke-linecap="round" stroke-linejoin="round"/>
<path d="M49 2L45 6" stroke="#8B9BAB" stroke-width="3" stroke-linecap="round" stroke-linejoin="round"/>
<defs>
<clipPath id="clip0_390_2198">
<rect width="54" height="39" fill="white" transform="translate(3 10)"/>
</clipPath>
</defs>
</svg>
